<svg class="project-title" width="400" height="100" viewBox="0 0 249 77" fill="none" xmlns="http://www.w3.org/2000/svg">
<path d="M83.5 62C93.1652 62 101 54.1652 101 44.5C101 34.8348 93.1652 27 83.5 27C73.8348 27 66 34.8348 66 44.5C66 54.1652 73.8348 62 83.5 62Z" stroke="black" stroke-width="3" stroke-linecap="round" stroke-linejoin="round"/>
<path d="M87.5827 56.75V53.4897C87.6264 52.9472 87.5512 52.4048 87.3622 51.892C87.1719 51.3789 86.8735 50.9128 86.4872 50.5252C90.1499 50.128 93.9999 48.7752 93.9999 42.5732C93.9966 40.9791 93.3683 39.4498 92.2499 38.3137C92.7822 36.9279 92.7444 35.3878 92.1449 34.0297C92.1449 34.0297 90.7677 33.6325 87.5827 35.7115C84.9065 35.006 82.0933 35.006 79.4172 35.7115C76.2322 33.6325 74.8549 34.0315 74.8549 34.0315C74.2564 35.3886 74.2186 36.9272 74.7499 38.312C73.6238 39.4565 72.9949 40.9992 72.9999 42.6047C72.9999 48.763 76.8499 50.114 80.5127 50.5568C80.1305 50.9409 79.8346 51.4021 79.6447 51.9095C79.456 52.4131 79.3784 52.9516 79.4172 53.488V56.75" stroke="black" stroke-width="3" stroke-linecap="round" stroke-linejoin="round"/>
<path d="M79.4175 54.4785C75.9175 55.5828 73.0002 54.4785 71.2502 51.0695" stroke="black" stroke-width="3" stroke-linecap="round" stroke-linejoin="round"/>
<path d="M108.909 27.0909H114.273V64.5455C114.273 66.697 113.902 68.5606 113.159 70.1364C112.432 71.7121 111.326 72.9318 109.841 73.7955C108.371 74.6591 106.515 75.0909 104.273 75.0909C104.091 75.0909 103.909 75.0909 103.727 75.0909C103.545 75.0909 103.364 75.0909 103.182 75.0909V70.0909C103.364 70.0909 103.53 70.0909 103.682 70.0909C103.833 70.0909 104 70.0909 104.182 70.0909C105.818 70.0909 107.015 69.6061 107.773 68.6364C108.53 67.6818 108.909 66.3182 108.909 64.5455V27.0909ZM111.545 21.2727C110.5 21.2727 109.598 20.9167 108.841 20.2045C108.098 19.4924 107.727 18.6364 107.727 17.6364C107.727 16.6364 108.098 15.7803 108.841 15.0682C109.598 14.3561 110.5 14 111.545 14C112.591 14 113.485 14.3561 114.227 15.0682C114.985 15.7803 115.364 16.6364 115.364 17.6364C115.364 18.6364 114.985 19.4924 114.227 20.2045C113.485 20.9167 112.591 21.2727 111.545 21.2727ZM138.733 62.7273C135.369 62.7273 132.468 61.9848 130.028 60.5C127.604 59 125.733 56.9091 124.415 54.2273C123.112 51.5303 122.46 48.3939 122.46 44.8182C122.46 41.2424 123.112 38.0909 124.415 35.3636C125.733 32.6212 127.566 30.4848 129.915 28.9545C132.278 27.4091 135.036 26.6364 138.188 26.6364C140.006 26.6364 141.801 26.9394 143.574 27.5455C145.347 28.1515 146.96 29.1364 148.415 30.5C149.869 31.8485 151.028 33.6364 151.892 35.8636C152.756 38.0909 153.188 40.8333 153.188 44.0909V46.3636H126.278V41.7273H147.733C147.733 39.7576 147.339 38 146.551 36.4545C145.778 34.9091 144.672 33.6894 143.233 32.7955C141.809 31.9015 140.127 31.4545 138.188 31.4545C136.051 31.4545 134.203 31.9848 132.642 33.0455C131.097 34.0909 129.907 35.4545 129.074 37.1364C128.241 38.8182 127.824 40.6212 127.824 42.5455V45.6364C127.824 48.2727 128.278 50.5076 129.188 52.3409C130.112 54.1591 131.392 55.5455 133.028 56.5C134.665 57.4394 136.566 57.9091 138.733 57.9091C140.142 57.9091 141.415 57.7121 142.551 57.3182C143.703 56.9091 144.695 56.303 145.528 55.5C146.362 54.6818 147.006 53.6667 147.46 52.4545L152.642 53.9091C152.097 55.6667 151.18 57.2121 149.892 58.5455C148.604 59.8636 147.013 60.8939 145.119 61.6364C143.225 62.3636 141.097 62.7273 138.733 62.7273ZM175.528 62.7273C172.256 62.7273 169.438 61.9545 167.074 60.4091C164.71 58.8636 162.892 56.7348 161.619 54.0227C160.347 51.3106 159.71 48.2121 159.71 44.7273C159.71 41.1818 160.362 38.053 161.665 35.3409C162.983 32.6136 164.816 30.4848 167.165 28.9545C169.528 27.4091 172.286 26.6364 175.438 26.6364C177.892 26.6364 180.104 27.0909 182.074 28C184.044 28.9091 185.657 30.1818 186.915 31.8182C188.172 33.4545 188.953 35.3636 189.256 37.5455H183.892C183.483 35.9545 182.574 34.5455 181.165 33.3182C179.771 32.0758 177.892 31.4545 175.528 31.4545C173.438 31.4545 171.604 32 170.028 33.0909C168.468 34.1667 167.248 35.6894 166.369 37.6591C165.506 39.6136 165.074 41.9091 165.074 44.5455C165.074 47.2424 165.498 49.5909 166.347 51.5909C167.21 53.5909 168.422 55.1439 169.983 56.25C171.559 57.3561 173.407 57.9091 175.528 57.9091C176.922 57.9091 178.188 57.6667 179.324 57.1818C180.46 56.697 181.422 56 182.21 55.0909C182.998 54.1818 183.559 53.0909 183.892 51.8182H189.256C188.953 53.8788 188.203 55.7348 187.006 57.3864C185.824 59.0227 184.256 60.3258 182.301 61.2955C180.362 62.25 178.104 62.7273 175.528 62.7273ZM212.278 27.0909V31.6364H194.188V27.0909H212.278ZM199.46 18.7273H204.824V52C204.824 53.5152 205.044 54.6515 205.483 55.4091C205.938 56.1515 206.513 56.6515 207.21 56.9091C207.922 57.1515 208.672 57.2727 209.46 57.2727C210.051 57.2727 210.536 57.2424 210.915 57.1818C211.294 57.1061 211.597 57.0455 211.824 57L212.915 61.8182C212.551 61.9545 212.044 62.0909 211.392 62.2273C210.741 62.3788 209.915 62.4545 208.915 62.4545C207.4 62.4545 205.915 62.1288 204.46 61.4773C203.021 60.8258 201.824 59.8333 200.869 58.5C199.93 57.1667 199.46 55.4848 199.46 53.4545V18.7273ZM244.449 34.9091L239.631 36.2727C239.328 35.4697 238.881 34.6894 238.29 33.9318C237.714 33.1591 236.926 32.5227 235.926 32.0227C234.926 31.5227 233.646 31.2727 232.085 31.2727C229.949 31.2727 228.169 31.7652 226.744 32.75C225.335 33.7197 224.631 34.9545 224.631 36.4545C224.631 37.7879 225.116 38.8409 226.085 39.6136C227.055 40.3864 228.57 41.0303 230.631 41.5455L235.812 42.8182C238.934 43.5758 241.259 44.7348 242.79 46.2955C244.32 47.8409 245.085 49.8333 245.085 52.2727C245.085 54.2727 244.509 56.0606 243.358 57.6364C242.222 59.2121 240.631 60.4545 238.585 61.3636C236.54 62.2727 234.161 62.7273 231.449 62.7273C227.888 62.7273 224.941 61.9545 222.608 60.4091C220.275 58.8636 218.797 56.6061 218.176 53.6364L223.267 52.3636C223.752 54.2424 224.669 55.6515 226.017 56.5909C227.381 57.5303 229.161 58 231.358 58C233.858 58 235.843 57.4697 237.312 56.4091C238.797 55.3333 239.54 54.0455 239.54 52.5455C239.54 51.3333 239.116 50.3182 238.267 49.5C237.419 48.6667 236.116 48.0455 234.358 47.6364L228.54 46.2727C225.343 45.5152 222.994 44.3409 221.494 42.75C220.009 41.1439 219.267 39.1364 219.267 36.7273C219.267 34.7576 219.82 33.0152 220.926 31.5C222.047 29.9848 223.57 28.7955 225.494 27.9318C227.434 27.0682 229.631 26.6364 232.085 26.6364C235.54 26.6364 238.252 27.3939 240.222 28.9091C242.206 30.4242 243.616 32.4242 244.449 34.9091Z" fill="black"/>
<path d="M4.90909 75.0909V27.0909H10.0909V32.6364H10.7273C11.1212 32.0303 11.6667 31.2576 12.3636 30.3182C13.0758 29.3636 14.0909 28.5152 15.4091 27.7727C16.7424 27.0152 18.5455 26.6364 20.8182 26.6364C23.7576 26.6364 26.3485 27.3712 28.5909 28.8409C30.8333 30.3106 32.5833 32.3939 33.8409 35.0909C35.0985 37.7879 35.7273 40.9697 35.7273 44.6364C35.7273 48.3333 35.0985 51.5379 33.8409 54.25C32.5833 56.947 30.8409 59.0379 28.6136 60.5227C26.3864 61.9924 23.8182 62.7273 20.9091 62.7273C18.6667 62.7273 16.8712 62.3561 15.5227 61.6136C14.1742 60.8561 13.1364 60 12.4091 59.0455C11.6818 58.0758 11.1212 57.2727 10.7273 56.6364H10.2727V75.0909H4.90909ZM10.1818 44.5455C10.1818 47.1818 10.5682 49.5076 11.3409 51.5227C12.1136 53.5227 13.2424 55.0909 14.7273 56.2273C16.2121 57.3485 18.0303 57.9091 20.1818 57.9091C22.4242 57.9091 24.2955 57.3182 25.7955 56.1364C27.3106 54.9394 28.447 53.3333 29.2045 51.3182C29.9773 49.2879 30.3636 47.0303 30.3636 44.5455C30.3636 42.0909 29.9848 39.8788 29.2273 37.9091C28.4848 35.9242 27.3561 34.3561 25.8409 33.2045C24.3409 32.0379 22.4545 31.4545 20.1818 31.4545C18 31.4545 16.1667 32.0076 14.6818 33.1136C13.197 34.2045 12.0758 35.7348 11.3182 37.7045C10.5606 39.6591 10.1818 41.9394 10.1818 44.5455ZM43.9091 62V27.0909H49.0909V32.3636H49.4545C50.0909 30.6364 51.2424 29.2348 52.9091 28.1591C54.5758 27.0833 56.4545 26.5455 58.5455 26.5455C58.9394 26.5455 59.4318 26.553 60.0227 26.5682C60.6136 26.5833 61.0606 26.6061 61.3636 26.6364V32.0909C61.1818 32.0455 60.7652 31.9773 60.1136 31.8864C59.4773 31.7803 58.803 31.7273 58.0909 31.7273C56.3939 31.7273 54.8788 32.0833 53.5455 32.7955C52.2273 33.4924 51.1818 34.4621 50.4091 35.7045C49.6515 36.9318 49.2727 38.3333 49.2727 39.9091V62H43.9091Z" fill="black"/>
</svg>
