<svg width="261" height="115" viewBox="0 0 261 115" fill="none" xmlns="http://www.w3.org/2000/svg">
<path d="M107.5 80C117.165 80 125 72.1652 125 62.5C125 52.8348 117.165 45 107.5 45C97.8348 45 90 52.8348 90 62.5C90 72.1652 97.8348 80 107.5 80Z" stroke="black" stroke-width="3" stroke-linecap="round" stroke-linejoin="round"/>
<path d="M111.583 74.75V71.4897C111.626 70.9472 111.551 70.4048 111.362 69.892C111.172 69.3789 110.873 68.9128 110.487 68.5252C114.15 68.128 118 66.7752 118 60.5732C117.997 58.9791 117.368 57.4498 116.25 56.3137C116.782 54.9279 116.744 53.3878 116.145 52.0297C116.145 52.0297 114.768 51.6325 111.583 53.7115C108.907 53.006 106.093 53.006 103.417 53.7115C100.232 51.6325 98.8549 52.0315 98.8549 52.0315C98.2564 53.3886 98.2186 54.9272 98.7499 56.312C97.6238 57.4565 96.9949 58.9992 96.9999 60.6047C96.9999 66.763 100.85 68.114 104.513 68.5568C104.131 68.9409 103.835 69.4021 103.645 69.9095C103.456 70.4131 103.378 70.9516 103.417 71.488V74.75" stroke="black" stroke-width="3" stroke-linecap="round" stroke-linejoin="round"/>
<path d="M103.417 72.4785C99.9175 73.5828 97.0002 72.4785 95.2502 69.0695" stroke="black" stroke-width="3" stroke-linecap="round" stroke-linejoin="round"/>
<path d="M146.594 26.7188C146.594 27.1875 146.411 27.7604 146.047 28.4375C145.734 29.0625 145.292 29.6615 144.719 30.2344C144.198 30.7552 143.599 31.224 142.922 31.6406C142.297 32.0052 141.646 32.1875 140.969 32.1875C140.396 32.1875 139.875 31.901 139.406 31.3281C138.938 30.7552 138.729 29.974 138.781 28.9844C138.781 28.3073 138.964 27.6042 139.328 26.875C139.745 26.0938 140.24 25.3906 140.812 24.7656C141.438 24.1406 142.089 23.6458 142.766 23.2812C143.495 22.8646 144.172 22.6562 144.797 22.6562C145.682 22.6562 146.203 23.0729 146.359 23.9062C146.568 24.7396 146.646 25.6771 146.594 26.7188ZM119.25 110.469C117.844 110.469 116.62 110.078 115.578 109.297C114.536 108.516 113.703 107.526 113.078 106.328C112.401 105.13 111.906 103.828 111.594 102.422C111.281 101.016 111.151 99.6875 111.203 98.4375C111.255 97.3438 111.672 95.9375 112.453 94.2188C113.182 92.5 114.224 90.651 115.578 88.6719C116.932 86.7448 118.573 84.7656 120.5 82.7344C122.427 80.7552 124.562 78.9844 126.906 77.4219C127.219 75.8073 127.557 74.1667 127.922 72.5C128.234 70.7812 128.547 69.1406 128.859 67.5781C129.172 65.9635 129.484 64.4531 129.797 63.0469C130.161 61.5885 130.5 60.3125 130.812 59.2188C131.177 57.8125 131.568 56.3281 131.984 54.7656C132.349 53.4115 132.766 51.9271 133.234 50.3125C133.703 48.6458 134.198 46.9792 134.719 45.3125C135.24 45.0521 135.734 44.8698 136.203 44.7656C136.672 44.6615 137.089 44.5833 137.453 44.5312C137.87 44.4792 138.26 44.4792 138.625 44.5312C138.99 44.5833 139.354 44.6875 139.719 44.8438C140.396 45.1042 140.995 45.5729 141.516 46.25C140.63 49.0625 139.875 51.4583 139.25 53.4375C138.677 55.4167 138.182 57.0573 137.766 58.3594C137.297 59.8698 136.932 61.1458 136.672 62.1875C136.203 63.6458 135.786 65.3125 135.422 67.1875C135.057 69.0104 134.641 70.9896 134.172 73.125C136.359 71.7708 138.547 70.1823 140.734 68.3594C142.974 66.5365 145.005 64.7656 146.828 63.0469C148.703 61.276 150.266 59.7396 151.516 58.4375C152.818 57.0833 153.625 56.224 153.938 55.8594C154.302 55.4427 154.667 55.2344 155.031 55.2344C155.396 55.1823 155.682 55.2865 155.891 55.5469C156.151 55.8073 156.255 56.1979 156.203 56.7188C156.203 57.1875 155.969 57.7344 155.5 58.3594C154.771 59.401 153.677 60.7292 152.219 62.3438C150.76 63.9062 149.094 65.5729 147.219 67.3438C145.344 69.0625 143.312 70.8073 141.125 72.5781C138.99 74.2969 136.854 75.7812 134.719 77.0312C134.25 77.2917 133.729 77.6302 133.156 78.0469C132.427 81.1198 131.724 84.1406 131.047 87.1094C130.37 90.0781 129.615 92.8385 128.781 95.3906C128 97.8906 127.297 100.078 126.672 101.953C126.047 103.88 125.396 105.469 124.719 106.719C124.042 107.969 123.286 108.906 122.453 109.531C121.568 110.156 120.5 110.469 119.25 110.469ZM116.438 100.625C116.333 102.448 116.464 103.802 116.828 104.688C117.193 105.625 117.688 106.094 118.312 106.094C118.729 106.094 119.198 105.651 119.719 104.766C120.188 103.88 120.656 102.76 121.125 101.406C121.542 100.052 121.984 98.5677 122.453 96.9531C122.87 95.3906 123.26 93.9062 123.625 92.5C123.938 91.0938 124.198 89.8958 124.406 88.9062C124.615 87.9167 124.745 87.3438 124.797 87.1875C124.901 86.7708 125.005 86.3281 125.109 85.8594C125.214 85.3906 125.318 84.8698 125.422 84.2969C124.224 85.5469 123.104 86.8229 122.062 88.125C120.969 89.4792 120.031 90.8594 119.25 92.2656C118.417 93.6719 117.766 95.0781 117.297 96.4844C116.776 97.8906 116.49 99.2708 116.438 100.625ZM184.797 58.75C183.234 61.0417 181.464 63.2812 179.484 65.4688C177.505 67.6042 175.396 69.5312 173.156 71.25C170.969 72.9167 168.703 74.2708 166.359 75.3125C164.068 76.3542 161.828 76.875 159.641 76.875C158.495 76.875 157.245 76.5885 155.891 76.0156C154.589 75.4948 153.391 74.6615 152.297 73.5156C151.203 72.3698 150.318 70.8854 149.641 69.0625C149.016 67.2396 148.833 65.026 149.094 62.4219C149.302 60.2865 149.953 58.0469 151.047 55.7031C152.193 53.3073 153.573 51.1198 155.188 49.1406C156.854 47.1615 158.703 45.5208 160.734 44.2188C162.818 42.9167 164.901 42.2656 166.984 42.2656C168.964 42.2656 170.396 42.7604 171.281 43.75C172.167 44.7396 172.557 45.9635 172.453 47.4219C172.297 49.0365 171.828 50.5208 171.047 51.875C170.318 53.2292 169.432 54.4531 168.391 55.5469C167.349 56.6406 166.229 57.6302 165.031 58.5156C163.885 59.401 162.792 60.2083 161.75 60.9375C160.604 61.7188 159.51 62.474 158.469 63.2031C157.427 63.8802 156.516 64.5052 155.734 65.0781C155.786 66.3802 156.021 67.474 156.438 68.3594C156.854 69.2448 157.375 69.974 158 70.5469C158.625 71.0677 159.328 71.4583 160.109 71.7188C160.943 71.9271 161.776 72.0312 162.609 72.0312C164.38 72.0312 166.229 71.4844 168.156 70.3906C170.083 69.2448 171.958 67.8906 173.781 66.3281C175.656 64.7135 177.375 63.0469 178.938 61.3281C180.552 59.6094 181.88 58.125 182.922 56.875C183.286 56.4583 183.651 56.224 184.016 56.1719C184.432 56.0677 184.745 56.1198 184.953 56.3281C185.214 56.4844 185.344 56.7969 185.344 57.2656C185.344 57.6823 185.161 58.1771 184.797 58.75ZM164.797 46.7188C164.172 46.7188 163.417 47.0312 162.531 47.6562C161.698 48.2812 160.865 49.1927 160.031 50.3906C159.198 51.5365 158.417 52.9688 157.688 54.6875C156.958 56.3542 156.411 58.2812 156.047 60.4688C156.672 60 157.349 59.5312 158.078 59.0625C158.807 58.5417 159.536 57.9948 160.266 57.4219C162.505 55.7031 164.068 54.1927 164.953 52.8906C165.839 51.5885 166.333 50.4688 166.438 49.5312C166.542 48.5417 166.438 47.8385 166.125 47.4219C165.812 46.9531 165.37 46.7188 164.797 46.7188ZM192.453 72.3438C194.068 72.3438 195.839 71.7188 197.766 70.4688C199.745 69.1667 201.646 67.6562 203.469 65.9375C205.344 64.2188 207.036 62.474 208.547 60.7031C210.109 58.8802 211.281 57.4219 212.062 56.3281C212.531 55.651 212.974 55.2604 213.391 55.1562C213.807 55 214.12 55.0521 214.328 55.3125C214.536 55.5729 214.615 55.9896 214.562 56.5625C214.51 57.0833 214.276 57.6823 213.859 58.3594C213.495 58.9844 212.87 59.8958 211.984 61.0938C211.151 62.2396 210.135 63.5156 208.938 64.9219C207.792 66.276 206.464 67.6823 204.953 69.1406C203.495 70.5469 201.958 71.849 200.344 73.0469C198.729 74.1927 197.062 75.1302 195.344 75.8594C193.625 76.6406 191.932 77.0312 190.266 77.0312C187.974 77.0312 186.047 76.5885 184.484 75.7031C182.974 74.8698 181.75 73.776 180.812 72.4219C179.927 71.0677 179.302 69.5833 178.938 67.9688C178.573 66.3021 178.391 64.6615 178.391 63.0469C178.391 61.4323 178.755 59.4271 179.484 57.0312C180.214 54.6354 181.281 52.3438 182.688 50.1562C184.146 47.9167 185.969 46.0156 188.156 44.4531C190.344 42.8385 192.922 42.0312 195.891 42.0312C197.557 42.0312 198.964 42.6042 200.109 43.75C201.307 44.8958 201.88 46.4583 201.828 48.4375C201.828 49.375 201.672 50.3125 201.359 51.25C201.047 52.1354 200.63 52.9427 200.109 53.6719C199.589 54.349 198.964 54.8958 198.234 55.3125C197.557 55.7292 196.802 55.9375 195.969 55.9375C195.292 55.9375 194.771 55.7031 194.406 55.2344C194.094 54.7135 193.885 54.1406 193.781 53.5156C193.729 52.8385 193.729 52.1875 193.781 51.5625C193.885 50.9375 193.99 50.5208 194.094 50.3125C194.354 49.9479 194.641 49.6875 194.953 49.5312C195.266 49.375 195.63 49.1927 196.047 48.9844C196.359 48.8281 196.594 48.5938 196.75 48.2812C196.958 47.9688 197.062 47.6302 197.062 47.2656C197.062 46.901 196.958 46.5885 196.75 46.3281C196.542 46.0677 196.203 45.9375 195.734 45.9375C195.266 45.9375 194.406 46.3281 193.156 47.1094C191.958 47.8385 190.708 48.9583 189.406 50.4688C188.156 51.9271 187.036 53.776 186.047 56.0156C185.057 58.2552 184.536 60.8594 184.484 63.8281C184.432 65.5469 184.667 66.9531 185.188 68.0469C185.708 69.1406 186.359 70 187.141 70.625C187.922 71.25 188.781 71.6927 189.719 71.9531C190.656 72.2135 191.568 72.3438 192.453 72.3438ZM237.062 55.2344C237.271 54.9219 237.531 54.7396 237.844 54.6875C238.208 54.5833 238.495 54.6094 238.703 54.7656C238.911 54.9219 239.016 55.1823 239.016 55.5469C239.068 55.9115 238.938 56.4062 238.625 57.0312C237.583 59.0104 236.203 61.1458 234.484 63.4375C232.818 65.7292 231.047 67.8906 229.172 69.9219C227.297 71.901 225.474 73.5417 223.703 74.8438C221.932 76.1458 220.448 76.7969 219.25 76.7969C217.531 76.7969 216.099 76.4583 214.953 75.7812C213.807 75.1042 212.896 74.2708 212.219 73.2812C211.594 72.2917 211.151 71.224 210.891 70.0781C210.63 68.8802 210.552 67.7865 210.656 66.7969C210.708 65.9635 210.891 64.4792 211.203 62.3438C211.516 60.1562 211.932 57.6562 212.453 54.8438C212.974 51.9792 213.547 48.9323 214.172 45.7031C214.849 42.4219 215.552 39.2708 216.281 36.25C215.396 36.3542 214.51 36.4583 213.625 36.5625C212.74 36.6667 211.932 36.7188 211.203 36.7188C209.536 36.7188 207.974 36.5365 206.516 36.1719C205.005 35.7552 203.885 35.3646 203.156 35C202.74 34.7917 202.557 34.5052 202.609 34.1406C202.661 33.724 202.818 33.3333 203.078 32.9688C203.339 32.5521 203.677 32.2135 204.094 31.9531C204.458 31.6406 204.797 31.4844 205.109 31.4844C206.099 31.5885 207.167 31.6927 208.312 31.7969C209.458 31.849 210.708 31.849 212.062 31.7969C213.052 31.7448 213.99 31.6667 214.875 31.5625C215.812 31.4583 216.724 31.3281 217.609 31.1719C218.286 28.6719 218.938 26.5104 219.562 24.6875C220.24 22.8125 220.839 21.5104 221.359 20.7812C221.516 20.5208 221.854 20.3125 222.375 20.1562C222.948 19.9479 223.547 19.8177 224.172 19.7656C224.797 19.6615 225.396 19.6615 225.969 19.7656C226.542 19.8177 226.958 20 227.219 20.3125C227.479 20.7292 227.583 21.7969 227.531 23.5156C227.479 25.2344 227.193 27.4219 226.672 30.0781C228.859 30.0781 230.786 30.2083 232.453 30.4688C234.172 30.6771 235.63 30.9375 236.828 31.25C238.026 31.5104 238.99 31.7969 239.719 32.1094C240.448 32.3698 240.995 32.5521 241.359 32.6562C241.724 32.7604 241.906 33.0208 241.906 33.4375C241.958 33.8542 241.88 34.2969 241.672 34.7656C241.516 35.1823 241.229 35.5469 240.812 35.8594C240.396 36.1719 239.927 36.276 239.406 36.1719C238.885 36.1198 238.286 36.0156 237.609 35.8594C236.984 35.7031 236.203 35.5729 235.266 35.4688C234.38 35.3646 233.312 35.2604 232.062 35.1562C230.812 35.0521 229.354 35 227.688 35C227.375 35 227.01 35.026 226.594 35.0781C226.229 35.0781 225.839 35.0781 225.422 35.0781C225.214 35.9115 225.005 36.7448 224.797 37.5781C224.641 38.3594 224.406 39.1927 224.094 40.0781C223.417 42.1615 222.635 44.4271 221.75 46.875C220.969 49.0104 220.031 51.4583 218.938 54.2188C217.844 56.9792 216.62 59.9219 215.266 63.0469C214.953 65.2865 214.979 67.0052 215.344 68.2031C215.76 69.349 216.255 70.1823 216.828 70.7031C217.505 71.276 218.339 71.5885 219.328 71.6406C220.109 71.7448 221.047 71.4844 222.141 70.8594C223.286 70.1823 224.458 69.2969 225.656 68.2031C226.854 67.1094 228.052 65.9115 229.25 64.6094C230.5 63.3073 231.646 62.0312 232.688 60.7812C233.729 59.5312 234.641 58.4115 235.422 57.4219C236.203 56.3802 236.75 55.651 237.062 55.2344ZM243.391 72.3438C243.703 72.5521 244.094 72.6562 244.562 72.6562C245.083 72.6562 245.578 72.5521 246.047 72.3438C246.568 72.1354 247.036 71.849 247.453 71.4844C247.922 71.1198 248.26 70.651 248.469 70.0781C248.677 69.5052 248.677 68.6979 248.469 67.6562C248.26 66.5625 247.922 65.4167 247.453 64.2188C247.036 62.9688 246.568 61.7188 246.047 60.4688C245.526 59.2188 245.083 58.0729 244.719 57.0312C244.406 56.25 244.146 55.5208 243.938 54.8438C243.729 54.2708 243.521 53.724 243.312 53.2031C243.156 52.6302 243.026 52.2396 242.922 52.0312C242.661 52.4479 242.193 53.125 241.516 54.0625C240.891 55 240.188 55.9896 239.406 57.0312C238.677 58.0208 237.974 58.9583 237.297 59.8438C236.62 60.6771 236.151 61.25 235.891 61.5625C235.474 62.0312 235.057 62.3177 234.641 62.4219C234.276 62.474 233.964 62.3958 233.703 62.1875C233.443 61.9271 233.286 61.5885 233.234 61.1719C233.234 60.7031 233.443 60.1562 233.859 59.5312C234.172 59.1146 234.641 58.4635 235.266 57.5781C235.891 56.6406 236.516 55.7031 237.141 54.7656C237.766 53.776 238.339 52.9167 238.859 52.1875C239.38 51.4062 239.667 50.9375 239.719 50.7812C239.823 50.3646 239.667 49.8177 239.25 49.1406C238.885 48.4635 238.833 47.6823 239.094 46.7969C239.302 46.0677 239.771 45.2344 240.5 44.2969C241.229 43.3073 242.089 42.4219 243.078 41.6406C244.068 40.8594 245.083 40.2865 246.125 39.9219C247.167 39.5052 248.104 39.5052 248.938 39.9219C249.615 40.3385 250.161 40.8073 250.578 41.3281C250.995 41.7969 251.151 42.2917 251.047 42.8125C250.943 43.0729 250.786 43.4115 250.578 43.8281C250.37 44.2448 250.057 44.7656 249.641 45.3906C249.224 45.9635 248.625 46.7188 247.844 47.6562C248 48.8542 248.208 49.9479 248.469 50.9375C248.781 51.9271 249.068 52.7865 249.328 53.5156C249.641 54.401 249.979 55.2083 250.344 55.9375C250.812 56.875 251.307 57.8385 251.828 58.8281C252.349 59.8177 252.818 60.8073 253.234 61.7969C253.651 62.7344 253.99 63.6198 254.25 64.4531C254.51 65.2865 254.589 65.9896 254.484 66.5625C254.328 67.4479 253.859 68.5156 253.078 69.7656C252.349 71.0156 251.411 72.2396 250.266 73.4375C249.172 74.5833 247.896 75.5729 246.438 76.4062C245.031 77.2396 243.547 77.6562 241.984 77.6562C240.891 77.6562 239.823 77.3177 238.781 76.6406C237.792 75.9635 236.932 75.1823 236.203 74.2969C235.526 73.3594 235.005 72.4479 234.641 71.5625C234.328 70.6771 234.302 70 234.562 69.5312C234.875 68.9062 235.161 68.4115 235.422 68.0469C235.682 67.6823 236.073 67.2656 236.594 66.7969C236.802 66.6406 237.062 66.4583 237.375 66.25C237.635 66.0938 238 65.9375 238.469 65.7812C238.938 65.625 239.484 65.4427 240.109 65.2344C240.63 66.849 241.099 68.125 241.516 69.0625C241.932 69.9479 242.271 70.651 242.531 71.1719C242.844 71.7448 243.13 72.1354 243.391 72.3438Z" fill="black"/>
<path d="M0.015625 86.1719C0.223958 86.0156 0.5625 85.7552 1.03125 85.3906C1.44792 85.026 1.96875 84.349 2.59375 83.3594C3.16667 82.3698 3.81771 80.9375 4.54688 79.0625C5.27604 77.1875 6.03125 74.6354 6.8125 71.4062C7.22917 69.6875 7.77604 67.5 8.45312 64.8438C9.13021 62.1875 9.85938 59.349 10.6406 56.3281C11.474 53.3073 12.3073 50.2083 13.1406 47.0312C13.974 43.8021 14.7812 40.7552 15.5625 37.8906C16.3438 34.974 17.0469 32.3438 17.6719 30C18.2969 27.6562 18.7917 25.8333 19.1562 24.5312C18.1667 25.1562 17.2031 25.8594 16.2656 26.6406C15.4323 27.3177 14.5469 28.099 13.6094 28.9844C12.6719 29.8177 11.7604 30.7031 10.875 31.6406C10.1979 31.0677 9.67708 30.4427 9.3125 29.7656C9.10417 29.4531 8.92188 29.1146 8.76562 28.75C8.45312 27.9688 8.29688 27.1615 8.29688 26.3281C8.29688 25.4948 8.94792 24.6354 10.25 23.75C10.9271 23.2812 11.9427 22.6042 13.2969 21.7188C14.7031 20.8333 16.4219 19.974 18.4531 19.1406C20.4844 18.2552 22.8542 17.5 25.5625 16.875C28.2708 16.25 31.2656 15.9375 34.5469 15.9375C37.8281 15.9375 40.4583 16.5885 42.4375 17.8906C44.4688 19.1927 46.0052 20.7812 47.0469 22.6562C48.1406 24.5312 48.8438 26.5104 49.1562 28.5938C49.4688 30.6771 49.5469 32.5 49.3906 34.0625C49.0781 36.9792 48.1406 40.026 46.5781 43.2031C45.0156 46.3802 42.8542 49.3229 40.0938 52.0312C37.3333 54.6875 33.974 56.9531 30.0156 58.8281C26.0573 60.7031 21.526 61.7708 16.4219 62.0312C16.0052 64.0104 15.5885 66.0417 15.1719 68.125C14.7552 70.2083 14.3125 72.2656 13.8438 74.2969C13.375 76.276 12.8802 78.125 12.3594 79.8438C11.8906 81.6146 11.3958 83.125 10.875 84.375C10.3542 85.7292 9.67708 86.7969 8.84375 87.5781C8.01042 88.4115 6.68229 88.8281 4.85938 88.8281C3.92188 88.8281 3.0625 88.5938 2.28125 88.125C1.44792 87.6562 0.692708 87.0052 0.015625 86.1719ZM18.5312 50.5469C18.375 51.3802 18.1667 52.474 17.9062 53.8281C17.6979 55.1302 17.4375 56.6146 17.125 58.2812C18.5312 58.0729 20.0938 57.7083 21.8125 57.1875C23.5312 56.6146 25.25 55.8594 26.9688 54.9219C28.6875 53.9844 30.3542 52.8646 31.9688 51.5625C33.6354 50.2083 35.1458 48.6719 36.5 46.9531C37.8542 45.1823 38.974 43.2031 39.8594 41.0156C40.7969 38.776 41.3958 36.3021 41.6562 33.5938C41.9167 30.9896 41.7604 28.8281 41.1875 27.1094C40.6667 25.3385 39.8854 23.9323 38.8438 22.8906C37.8021 21.7969 36.6042 21.0417 35.25 20.625C33.8958 20.1562 32.5417 19.9219 31.1875 19.9219C29.8854 19.9219 28.6094 20.1042 27.3594 20.4688C26.1094 20.8333 24.8594 21.3021 23.6094 21.875C23.7656 21.9271 23.9479 22.0573 24.1562 22.2656C24.4688 22.5781 24.7031 23.0208 24.8594 23.5938C23.6094 28.6458 22.5677 32.8646 21.7344 36.25C20.9531 39.6354 20.3281 42.3958 19.8594 44.5312C19.2865 47.0312 18.8438 49.0365 18.5312 50.5469ZM45.25 74.6094C44.8854 75.1823 44.4948 75.5469 44.0781 75.7031C43.6094 75.9115 43.2188 75.9375 42.9062 75.7812C42.5417 75.6771 42.3073 75.4167 42.2031 75C42.099 74.5833 42.2031 74.0625 42.5156 73.4375C42.6719 73.125 43.0365 72.4219 43.6094 71.3281C44.1302 70.2344 44.7812 68.9323 45.5625 67.4219C46.2917 65.8594 47.099 64.1927 47.9844 62.4219C48.8698 60.599 49.7031 58.8802 50.4844 57.2656C51.3177 55.651 52.0729 54.2188 52.75 52.9688C53.4271 51.6667 53.9219 50.7292 54.2344 50.1562C53.6615 49.6354 53.2708 49.2708 53.0625 49.0625C52.8542 48.8021 52.6979 48.2812 52.5938 47.5C52.4896 46.8229 52.6458 45.9375 53.0625 44.8438C53.4792 43.75 54.026 42.7083 54.7031 41.7188C55.3802 40.6771 56.1354 39.7917 56.9688 39.0625C57.8021 38.3333 58.6094 37.9688 59.3906 37.9688C60.849 37.9688 61.8646 38.4375 62.4375 39.375C63.0625 40.3125 63.4271 41.276 63.5312 42.2656C63.6354 42.9427 63.5833 43.8021 63.375 44.8438C63.1667 45.8854 62.776 46.8229 62.2031 47.6562C62.3594 47.7604 62.5677 47.8906 62.8281 48.0469C63.0885 48.151 63.5052 48.2031 64.0781 48.2031C64.9115 48.2031 65.4844 48.151 65.7969 48.0469C66.1615 47.9427 66.7083 47.8906 67.4375 47.8906C68.3229 47.8906 69.0521 48.125 69.625 48.5938C70.1979 49.0104 70.6667 49.5573 71.0312 50.2344C71.3958 50.8594 71.6562 51.5625 71.8125 52.3438C72.0208 53.0729 72.151 53.75 72.2031 54.375C72.3594 55.6771 72.0208 57.0312 71.1875 58.4375C70.3542 59.8438 69.3385 61.3802 68.1406 63.0469C67.4115 64.0885 66.6823 65.2604 65.9531 66.5625C65.224 67.8646 64.9115 69.0365 65.0156 70.0781C65.1198 70.7552 65.3021 71.3021 65.5625 71.7188C65.8229 72.1354 66.5521 72.3438 67.75 72.3438C68.6354 72.3438 69.599 72.0312 70.6406 71.4062C71.7344 70.7292 72.8281 69.8958 73.9219 68.9062C75.0677 67.8646 76.1875 66.7448 77.2812 65.5469C78.375 64.2969 79.3906 63.099 80.3281 61.9531C81.2656 60.7552 82.0469 59.6875 82.6719 58.75C83.349 57.8125 83.8438 57.1354 84.1562 56.7188C84.4167 56.3021 84.7552 56.0156 85.1719 55.8594C85.5885 55.7031 85.9531 55.7031 86.2656 55.8594C86.5781 56.0156 86.7604 56.3281 86.8125 56.7969C86.9167 57.2656 86.7344 57.8906 86.2656 58.6719C85.9531 59.1927 85.4062 60.026 84.625 61.1719C83.8958 62.3177 82.9844 63.5938 81.8906 65C80.849 66.4062 79.6771 67.8646 78.375 69.375C77.0729 70.8333 75.6927 72.1875 74.2344 73.4375C72.8281 74.6354 71.3958 75.625 69.9375 76.4062C68.5312 77.1875 67.1771 77.5781 65.875 77.5781C64.5208 77.5781 63.401 77.3177 62.5156 76.7969C61.6302 76.276 60.901 75.651 60.3281 74.9219C59.8073 74.1406 59.4167 73.3073 59.1562 72.4219C58.9479 71.4844 58.8698 70.625 58.9219 69.8438C58.974 69.2188 59.1302 68.5677 59.3906 67.8906C59.7031 67.1615 60.0417 66.4323 60.4062 65.7031C60.8229 64.9219 61.2396 64.1667 61.6562 63.4375C62.125 62.6562 62.5417 61.901 62.9062 61.1719C63.7917 59.6615 64.4948 58.3854 65.0156 57.3438C65.5885 56.25 65.875 55.3385 65.875 54.6094C65.875 54.1406 65.7708 53.724 65.5625 53.3594C65.3542 52.9948 65.0156 52.8125 64.5469 52.8125C64.2344 52.8125 64 52.8385 63.8438 52.8906C63.7396 52.8906 63.6094 52.8906 63.4531 52.8906C63.349 52.8906 63.1667 52.9167 62.9062 52.9688C62.6979 52.9688 62.3594 52.9688 61.8906 52.9688C61.2135 52.9688 60.6406 52.8646 60.1719 52.6562C59.7031 52.4479 59.2604 52.2917 58.8438 52.1875C58.6354 52.5521 58.1667 53.3333 57.4375 54.5312C56.7083 55.7292 55.849 57.1354 54.8594 58.75C53.9219 60.3646 52.9062 62.0573 51.8125 63.8281C50.7708 65.599 49.7812 67.2656 48.8438 68.8281C47.9062 70.3385 47.125 71.6406 46.5 72.7344C45.8229 73.776 45.4062 74.401 45.25 74.6094Z" fill="black"/>
</svg>
